<?xml version="1.0" encoding="UTF-8"?>
<svg id="Layer_1" xmlns="http://www.w3.org/2000/svg" version="1.1" viewBox="0 0 2120 360">
  <!-- Generator: Adobe Illustrator 29.6.1, SVG Export Plug-In . SVG Version: 2.1.1 Build 9)  -->
  <defs>
    <style>
      .st0 {
        fill: #7c878e;
      }
    </style>
  </defs>
  <g>
    <path class="st0" d="M293.7,114.5h132.7c33.6,0,42.2,1,53.1,6.5,17.4,8.6,23.9,24.5,23.9,57.2s-6,50.2-20.3,59.1c-10.1,6.2-21.9,8.1-52,8.1h-84.8v42.7h-52.6V114.5h0ZM423.1,203.2c21.6,0,27.8-4.7,27.8-21.1s-5.2-25.5-27.8-25.5h-76.8v46.6h76.8Z"/>
    <path class="st0" d="M751.4,114.5l-10.9,39.3h-129.3v29.9h132.2l-10.9,34.3h-121.3v30.7h142.1l-10.9,39.3h-183.2V114.4h192.3,0Z"/>
    <path class="st0" d="M138,156.6h92.6l10.9-42.1h-116.6c-48.7,0-65.3,2.3-80.9,11.4-18.2,10.4-23.4,29.5-23.4,75.2h0c0,45.8,5.2,64.9,23.4,75.3,15.6,9.1,32.3,11.4,80.9,11.4h105.6l10.9-42.1h-103.6c-43.2,0-52.4-2.5-58.9-8.2-6.2-5.7-6.1-14.6-6.1-36.5s-.1-30.7,6.1-36.4c6.5-5.7,15.7-8.2,58.9-8.2l.2.2Z"/>
    <g>
      <path class="st0" d="M1007.3,181.7l88.6-67.5h-90.2l-42,36.6c2.3,1.6,4.5,3.2,6.8,4.8,12.2,8.6,22.3,15,36.8,26.1h0Z"/>
      <path class="st0" d="M802.8,288h90.8l44.3-45.6c-14.5-14-25.2-23.2-39.2-34.9l-95.9,80.5h0Z"/>
    </g>
    <path class="st0" d="M957.7,206.2h20.7c18.6,15,36.7,30.5,54.4,46.5,12.5,11.5,24.8,23.3,36.8,35.3h31.1c-41.3-43-93.8-84.3-140.8-117.5-68.6-49.8-130.1-82.4-205.8-109.8C644,20.8,496,4.5,368.5,14h0c111.9-2.1,236.6,16.6,330.4,53.6,68.9,27.1,124.6,58.7,186.4,106.2,43.4,32.5,84.5,72.7,122,114.3h34.8c-26.5-28.9-54.6-56.3-84.4-81.8h0ZM750.7,75.5c-16.9-7.1-34.2-13.5-51.6-19.2h9.7c18.3,5.7,36.4,12,54.2,19.2h-12.3ZM828.9,114.5c-9.7-5.6-19.5-11-29.4-16.2-8.9-4.6-17.9-9-27-13.2h13c5.6,2.5,11.2,5,16.7,7.7,14,6.8,27.8,14.1,41.4,21.7h-14.7ZM928,181.8c-23.4-18.4-47.7-35.6-72.9-51.5h15.7c26.2,15.9,51.5,33.2,76.1,51.5h-18.9,0Z"/>
  </g>
  <g>
    <path class="st0" d="M1234.2,160.1v2.5c0,10.7-1.1,14.7-4.9,18.3-2.2,2.1-6,4-10,4.7-2.2.3-8.6.6-14.9.6-12.3,0-15.6-.5-20.3-3.2-6.2-3.3-8.9-8.7-9.6-18.8-.3-4.1-.5-12.8-.5-19.4,0-14.9,1.4-20.3,6.2-24.9,5.3-5.1,10.7-6.3,28-6.3s15.8,1,19.5,4.1c3,2.6,4.8,6.3,5.5,11.6.2,1.7.3,3.9.4,8.8h-13.6c-.2-11.4-1.5-12.6-13.7-12.6s-13.1.7-15.2,2.8c-1.8,1.8-2.6,4.4-2.8,9.8,0,1.2,0,5.1,0,11.6,0,23.4,1,24.9,16.3,24.9s16.3-1.7,16.3-11.3,0-1.6,0-3h13.6v-.2Z"/>
    <path class="st0" d="M1301.9,115.9c6.4,2.9,10.1,8,11.4,16.4.5,3.2.7,7.4.7,16.9,0,17.1-.6,21.8-3.6,27.2-2.6,4.5-7.3,7.6-13.7,8.9-2.9.6-8.6,1-15.5,1-10.6,0-15.9-.9-20.3-3.2-5.7-3.1-8.6-7.7-9.8-15.6-.5-3.3-.6-6.7-.6-15.6,0-18.4.7-23.6,4.1-28.9,2.7-4.2,7.4-7.2,13.3-8.3,2.8-.6,8.7-1,15.1-1,10.2,0,14.9.6,19,2.4v-.2ZM1264.4,152.8c0,12.5.5,15.7,3.1,18.7,2,2.4,5.2,2.9,16.2,2.9s13.4-1.2,15.2-6.3c1.3-3.5,1.4-5.3,1.4-18.7s0-11.6-.5-14.9c-.6-4.2-2.4-6.8-5-8-2.4-1-5-1.2-13.1-1.2s-11.6.5-13.8,2.8c-2.4,2.2-3.3,6-3.4,13.1v11.7h0Z"/>
    <path class="st0" d="M1341.9,171.8l-4.4,13.7h-14.3l23.8-71.4h20.2l24.2,71.4h-14l-4.6-13.7h-30.9ZM1357.4,124.6l-12.2,37h24.5l-12.3-37Z"/>
    <path class="st0" d="M1446.6,135v-1.3c0-7.8-2.2-9.4-13.3-9.4s-15.5,1.6-15.5,9.7,1.3,7.5,4.7,8.6c1.8.5,2.5.5,13.6,1.2,12,.7,16,1.5,19.5,4,4.4,3,5.9,7.2,5.9,16.3s-1.3,13.7-4.4,16.8c-4.3,4.2-9.7,5.3-24.6,5.3s-17.3-.7-22-3.5c-2.7-1.6-4.9-5-5.7-8.8-.6-3.1-.7-5.2-.9-10.9h13.2c0,5.3.3,7.2,1.5,9,1.7,2.9,3.4,3.2,14.6,3.2s10.3-.3,12.3-1.9c1.8-1.3,2.6-4.1,2.6-9s-1.1-7-4-7.9c-1.1-.4-5.7-.9-13.6-1.4-12.2-.7-14.8-1.2-18.4-2.9-5.7-2.8-7.9-7.9-7.9-17.8s1.8-13.7,5.7-16.5c4.4-3.3,10-4.3,23.2-4.3s19.2,1.4,22.7,5.4c2.8,3.1,4.1,7.4,4.1,13.6v2.6h-13.3Z"/>
    <path class="st0" d="M1509.6,185.5h-13.7v-59.4h-20.6v-12h55.4v12h-21.1v59.4h0Z"/>
    <path class="st0" d="M1552.3,171.8l-4.4,13.7h-14.3l23.8-71.4h20.2l24.2,71.4h-14l-4.6-13.7h-30.9ZM1567.7,124.6l-12.2,37h24.5l-12.3-37Z"/>
    <path class="st0" d="M1631.5,173.5h33.3v12h-47v-71.4h13.7v59.4Z"/>
    <path class="st0" d="M1701,114.2h28.9c7.6,0,8.3,0,11,.2,6.3.4,11.2,3.1,13.9,7.5,2.4,4,3.2,8.6,3.2,17.2,0,13.3-3.3,19.8-11.6,22.3-1.9.7-7.2,1.1-15.8,1.2h-15.9v23h-13.7v-71.4h0ZM1730.1,150.8c12.1,0,14-1.6,14-11.9s-.9-10.8-3.6-12.3c-1.9-.9-3.2-1.1-9-1.1h-16.8v25.3h15.4Z"/>
    <path class="st0" d="M1784.3,171.8l-4.4,13.7h-14.3l23.8-71.4h20.2l24.2,71.4h-14l-4.6-13.7h-30.9ZM1799.7,124.6l-12.2,37h24.5l-12.3-37Z"/>
    <path class="st0" d="M1902.5,114.2l-23,71.4h-20.8l-22.8-71.4h14l13.4,40.4c1.1,3,3.6,11.9,5.7,19.4h.3c3.3-12,3.7-13.5,5.7-19.4l13.2-40.4h14.3Z"/>
    <path class="st0" d="M1932.2,185.5h-13.7v-71.4h13.7v71.4Z"/>
    <path class="st0" d="M2018.4,185.5h-23l-20.4-39.2c-1.3-2.7-2.7-5.6-7-15.4l-2.4-5h-.4v4.6c.4,6.8.4,7.4.4,14v41h-13.5v-71.4h22.9l18.6,36.2c2.7,5.3,3.5,7.2,8.3,17.4l2.8,5.9h.4v-4.6c-.4-6.6-.4-7.2-.4-13.8v-41.1h13.6v71.4h0Z"/>
    <path class="st0" d="M2099.1,147.6c.2,3.6.2,6.2.2,12.3,0,12.2-1.1,16.6-4.9,20.5-4.3,4.5-10,5.7-26.9,5.7s-14.1-.5-18.3-2.2c-9.2-3.9-12.3-10.7-12.3-27.2s.2-22.9,1.6-28.1c1.9-7.2,6.5-11.8,13.6-13.8,3.3-1,8-1.3,17-1.3,14.7,0,18.3.5,23.1,3.4s6.6,7.9,6.8,18.6h-13.8c-.4-9.5-2.1-10.6-16.9-10.6s-13.9,1.2-15.8,5.1c-1.4,3-1.7,6.3-1.7,19.3s.3,17.4,1.6,20.2c1.8,4,5.8,5.1,16.9,5.1s11.8-.7,13.6-2.6c1.8-1.8,2.8-5.7,2.8-11.4s-.1-1.6-.2-2.9h-17.9v-10.2h31.5,0Z"/>
    <path class="st0" d="M1234.7,253.7c0,12.1-.2,13.3-1.4,18.1l10.3,8.7-6.4,7.8-8.6-7.3c-3.7,6-8.6,7.7-21.9,7.7s-21-1.1-25.4-4.7c-3.7-3.1-5.7-9.2-5.7-17.9s1.6-12.8,5.2-15.7c1.9-1.5,3.6-2,8.3-2.7-5-4.4-5.9-6.4-5.9-12.9,0-13.3,5.3-17.4,22.6-17.4s22.7,4.2,22.7,19.2v2.9h-12.1v-2c0-8.5-1.2-9.6-10.3-9.6s-10.3,1.4-10.3,7.4.6,5.5,5.5,9.5l21.7,18.6v-9.5h11.6v-.2ZM1196.4,253.9c-6.3,1-7.9,3.3-7.9,11.3s1.9,12.8,15.2,12.8,12.4-.3,16.2-4.6l-23.4-19.6h0Z"/>
    <path class="st0" d="M1285.7,246.5h33.3v10.1h-33.3v20.1h35.4v11.3h-49.1v-71.4h48.8v11.3h-35.1v18.5h0Z"/>
    <path class="st0" d="M1381.1,251.2l22.8,36.8h-15.8l-10.3-17.1c-2.4-4.1-3.1-5.5-6-10.9l-1.5-2.8h-.2l-2.4,4.5c-1.3,2.4-2.7,4.9-5.2,9.2l-10.4,17.1h-16.3l23.4-36.8-21.7-34.6h16l9.6,15.9c2.6,4.4,3,5.1,6.7,12.4h.2l1.4-2.6c2.4-4.5,3.1-5.9,5.5-9.8l9.5-15.9h15.9l-21.4,34.6h.2Z"/>
    <path class="st0" d="M1473.1,262.6v2.5c0,10.7-1.1,14.7-4.9,18.3-2.2,2.1-6,4-10,4.7-2.2.3-8.6.6-14.9.6-12.3,0-15.6-.5-20.3-3.2-6.2-3.3-8.9-8.7-9.6-18.8-.3-4.1-.5-12.8-.5-19.4,0-14.9,1.4-20.3,6.2-24.9,5.4-5.1,10.7-6.3,28-6.3s15.8,1,19.5,4.1c3,2.6,4.8,6.3,5.5,11.6.2,1.7.3,3.9.4,8.8h-13.6c-.2-11.4-1.5-12.6-13.7-12.6s-13.1.7-15.2,2.8c-1.8,1.8-2.6,4.4-2.8,9.8,0,1.2,0,5.1,0,11.6,0,23.4,1,24.9,16.3,24.9s16.3-1.7,16.3-11.3,0-1.6,0-3h13.6v-.2Z"/>
    <path class="st0" d="M1504.1,274.3l-4.4,13.7h-14.3l23.8-71.4h20.2l24.2,71.4h-14l-4.6-13.7h-30.9ZM1519.5,227.1l-12.2,37h24.5l-12.3-37Z"/>
    <path class="st0" d="M1622.1,216.7l-23,71.4h-20.8l-22.8-71.4h14l13.4,40.4c1.1,3,3.6,11.9,5.7,19.4h.3c3.3-12,3.7-13.5,5.7-19.4l13.2-40.4h14.3Z"/>
    <path class="st0" d="M1642.8,274.3l-4.4,13.7h-14.3l23.8-71.4h20.2l24.2,71.4h-14l-4.6-13.7h-30.9ZM1658.2,227.1l-12.2,37h24.5l-12.3-37Z"/>
    <path class="st0" d="M1729.2,288h-13.7v-59.4h-20.6v-12h55.4v12h-21.1v59.4h0Z"/>
    <path class="st0" d="M1780.3,288h-13.7v-71.4h13.7v71.4Z"/>
    <path class="st0" d="M1866.5,288h-23l-20.4-39.2c-1.3-2.7-2.7-5.6-7-15.4l-2.4-5h-.4v4.6c.4,6.8.4,7.4.4,14v41h-13.5v-71.4h22.9l18.6,36.2c2.7,5.3,3.5,7.2,8.3,17.4l2.8,5.9h.4v-4.6c-.4-6.6-.4-7.2-.4-13.8v-41.1h13.6v71.4h0Z"/>
    <path class="st0" d="M1947.3,250.1c.2,3.6.2,6.2.2,12.3,0,12.2-1.1,16.6-4.9,20.5-4.3,4.5-10,5.7-26.9,5.7s-14.1-.5-18.3-2.2c-9.2-3.9-12.3-10.7-12.3-27.2s.2-22.9,1.6-28.1c1.9-7.2,6.5-11.8,13.6-13.8,3.3-1,8-1.3,17-1.3,14.7,0,18.3.5,23.1,3.4s6.6,7.9,6.8,18.6h-13.8c-.4-9.5-2.1-10.6-16.9-10.6s-13.9,1.2-15.8,5.1c-1.4,3-1.7,6.3-1.7,19.3s.3,17.4,1.6,20.2c1.8,4,5.8,5.1,16.9,5.1s11.8-.7,13.6-2.6c1.8-1.8,2.8-5.7,2.8-11.4s-.1-1.6-.2-2.9h-17.9v-10.2h31.5,0Z"/>
  </g>
</svg>