<?xml version="1.0" encoding="UTF-8"?><svg id="Layer_1" xmlns="http://www.w3.org/2000/svg" viewBox="0 0 620 240"><defs><style>.cls-1{fill:#7c878e;}</style></defs><path class="cls-1" d="M605.82,127.59c-.06-.01-.12-.02-.18-.03-.06-.01-.12-.02-.18-.03-.06-.01-.12-.02-.18-.03-.06-.01-.12-.02-.18-.03-.06-.01-.12-.02-.18-.03-.06-.01-.12-.02-.18-.03-.06-.01-.12-.02-.18-.03-.06-.01-.12-.02-.18-.03-.06-.01-.12-.02-.18-.03-.06-.01-.12-.02-.18-.03-.06-.01-.12-.02-.18-.03-.06-.01-.12-.02-.18-.03-.06-.01-.12-.02-.18-.03-.06-.01-.12-.02-.18-.03-.06-.01-.12-.02-.18-.03-.06-.01-.12-.02-.18-.03-.06-.01-.12-.02-.18-.03-.06-.01-.12-.02-.18-.03-.06-.01-.12-.02-.18-.03-.06-.01-.12-.02-.18-.03-.06-.01-.12-.02-.18-.03-.06-.01-.12-.02-.18-.03-.06-.01-.12-.02-.18-.03-.06-.01-.12-.02-.18-.03-.06-.01-.12-.02-.18-.03-.06-.01-.12-.02-.18-.03-.06-.01-.12-.02-.18-.03-.06-.01-.12-.02-.18-.03-.06-.01-.12-.02-.18-.03-.06-.01-.12-.02-.18-.03-.06-.01-.12-.02-.18-.03-.06-.01-.12-.02-.18-.03-.06-.01-.12-.02-.18-.03-.06-.01-.12-.02-.18-.03-.06-.01-.12-.02-.18-.03-.06-.01-.12-.02-.18-.03-.06-.01-.12-.02-.18-.03-.06-.01-.12-.02-.18-.03-.06-.01-.12-.02-.18-.03-.06-.01-.12-.02-.18-.03-.06-.01-.12-.02-.18-.03-.06-.01-.12-.02-.18-.03-.06-.01-.12-.02-.18-.03-.06-.01-.12-.02-.18-.03-.06-.01-.12-.02-.18-.03-.06-.01-.12-.02-.18-.03-.06-.01-.12-.02-.18-.03-.06-.01-.12-.02-.18-.03-.06-.01-.12-.02-.18-.03-.06-.01-.12-.02-.18-.03-.06-.01-.12-.02-.18-.03-.06-.01-.12-.02-.18-.03-.06-.01-.12-.02-.18-.03-.06-.01-.12-.02-.18-.03-.06-.01-.12-.02-.18-.03-.06-.01-.12-.02-.18-.03-.06-.01-.12-.02-.18-.03-.06-.01-.12-.02-.18-.03-.06-.01-.12-.02-.18-.03-.06-.01-.12-.02-.18-.03-.06-.01-.12-.02-.18-.03-.06-.01-.12-.02-.18-.03-.06-.01-.12-.02-.18-.03-.06-.01-.12-.02-.18-.03-.06-.01-.12-.02-.18-.03-.06-.01-.12-.02-.18-.03-.06-.01-.12-.02-.18-.03-.06-.01-.12-.02-.18-.03-.06-.01-.12-.02-.18-.03-.06-.01-.12-.02-.18-.03-.06-.01-.12-.02-.18-.03-.06-.01-.12-.02-.18-.03-.06-.01-.12-.02-.18-.03-.06-.01-.12-.02-.18-.03-.06-.01-.12-.02-.18-.03-.06-.01-.12-.02-.18-.03-.06-.01-.12-.02-.18-.03-.06-.01-.12-.02-.18-.03-.06-.01-.12-.02-.18-.03-.06-.01-.12-.02-.18-.03-.06-.01-.12-.02-.18-.03-.06-.01-.12-.02-.18-.03-.06-.01-.12-.02-.18-.03-.06-.01-.12-.02-.18-.03-.06-.01-.12-.02-.18-.03-.06-.01-.12-.02-.18-.03-.06-.01-.12-.02-.18-.03-.06-.01-.12-.02-.18-.03-.06-.01-.12-.02-.18-.03-.06-.01-.12-.02-.18-.03-.06-.01-.12-.02-.18-.03-.06-.01-.12-.02-.18-.03-.06-.01-.12-.02-.18-.03-.06-.01-.12-.02-.18-.03-.06-.01-.12-.02-.18-.03-.06-.01-.12-.02-.18-.03-.06-.01-.12-.02-.18-.03-.06-.01-.12-.02-.18-.03-.06-.01-.12-.02-.18-.03-.06-.01-.12-.02-.18-.03-.31-.07-.62-.1-.95-.1h-12.68c-.72.93-1.67,1.68-2.76,2.14l-.44.18-.44,2.17h16.31l-26.36,91.92h-33.97l10.66-37.18h-36.96l-10.66,37.18h-33.82l26.36-91.92h33.82l-9.22,32.17h36.96l9.22-32.17h14.23l-.49-2.18-.43-.18c-1.11-.46-2.07-1.21-2.8-2.14h-10.51c-2.01,0-3.77,1.33-4.32,3.26l-8.29,28.91h-8.84l6.81-23.73c.39-1.36.12-2.82-.73-3.95-.75-1-1.88-1.63-3.11-1.76-.06,0-.12-.02-.18-.03-.06,0-.12-.02-.18-.03-.06,0-.12-.02-.18-.03-.06,0-.12-.02-.18-.03-.06,0-.12-.02-.18-.03-.06,0-.12-.02-.18-.03-.06,0-.12-.02-.18-.03-.06,0-.12-.02-.18-.03-.06,0-.12-.02-.18-.03-.06,0-.12-.02-.18-.03-.06,0-.12-.02-.18-.03-.06,0-.12-.02-.18-.03-.06,0-.12-.02-.18-.03-.06,0-.12-.02-.18-.03-.06,0-.12-.02-.18-.03-.06,0-.12-.02-.18-.03-.06,0-.12-.02-.18-.03-.06,0-.12-.02-.18-.03-.06,0-.12-.02-.18-.03-.06,0-.12-.02-.18-.03-.06,0-.12-.02-.18-.03-.06,0-.12-.02-.18-.03-.06,0-.12-.02-.18-.03-.06,0-.12-.02-.18-.03-.06,0-.12-.02-.18-.03-.06,0-.12-.02-.18-.03-.06,0-.12-.02-.18-.03-.06,0-.12-.02-.18-.03-.06,0-.12-.02-.18-.03-.06,0-.12-.02-.18-.03-.06,0-.12-.02-.18-.03-.06,0-.12-.02-.18-.03-.06,0-.12-.02-.18-.03-.06,0-.12-.02-.18-.03-.06,0-.12-.02-.18-.03-.06,0-.12-.02-.18-.03-.06,0-.12-.02-.18-.03-.06,0-.12-.02-.18-.03-.06,0-.12-.02-.18-.03-.06,0-.12-.02-.18-.03-.06,0-.12-.02-.18-.03-.06,0-.12-.02-.18-.03-.06,0-.12-.02-.18-.03-.06,0-.12-.02-.18-.03-.06,0-.12-.02-.18-.03-.06,0-.12-.02-.18-.03-.06,0-.12-.02-.18-.03-.06,0-.12-.02-.18-.03-.06,0-.12-.02-.18-.03-.06,0-.12-.02-.18-.03-.06,0-.12-.02-.18-.03-.06,0-.12-.02-.18-.03-.06,0-.12-.02-.18-.03-.06,0-.12-.02-.18-.03-.06,0-.12-.02-.18-.03-.06,0-.12-.02-.18-.03-.06,0-.12-.02-.18-.03-.06,0-.12-.02-.18-.03-.06,0-.12-.02-.18-.03-.06,0-.12-.02-.18-.03-.06,0-.12-.02-.18-.03-.06,0-.12-.02-.18-.03-.06,0-.12-.02-.18-.03-.06,0-.12-.02-.18-.03-.06,0-.12-.02-.18-.03-.06,0-.12-.02-.18-.03-.06,0-.12-.02-.18-.03-.06,0-.12-.02-.18-.03-.06,0-.12-.02-.18-.03-.06,0-.12-.02-.18-.03-.06,0-.12-.02-.18-.03-.06,0-.12-.02-.18-.03-.06,0-.12-.02-.18-.03-.06,0-.12-.02-.18-.03-.06,0-.12-.02-.18-.03-.06,0-.12-.02-.18-.03-.06,0-.12-.02-.18-.03-.06,0-.12-.02-.18-.03-.06,0-.12-.02-.18-.03-.06,0-.12-.02-.18-.03-.06,0-.12-.02-.18-.03-.06,0-.12-.02-.18-.03-.06,0-.12-.02-.18-.03-.06,0-.12-.02-.18-.03-.06,0-.12-.02-.18-.03-.06,0-.12-.02-.18-.03-.06,0-.12-.02-.18-.03-.06,0-.12-.02-.18-.03-.06,0-.12-.02-.18-.03-.06,0-.12-.02-.18-.03-.06,0-.12-.02-.18-.03-.06,0-.12-.02-.18-.03-.06,0-.12-.02-.18-.03-.06,0-.12-.02-.18-.03-.06,0-.12-.02-.18-.03-.06,0-.12-.02-.18-.03-.06,0-.12-.02-.18-.03-.06,0-.12-.02-.18-.03-.06,0-.12-.02-.18-.03-.06,0-.12-.02-.18-.03-.22-.03-.44-.06-.66-.06h-33.82c-2.01,0-3.77,1.33-4.32,3.26l-4.28,14.91c-1.53-3.87-4.06-7.1-7.61-9.64-3.14-2.25-7.07-3.98-11.82-5.2h13.53c1.98,0,3.72-1.29,4.3-3.18l24.87-81.34c.16-.46.25-.96.25-1.47,0-2.22-1.61-4.05-3.73-4.42-.06-.01-.12-.02-.18-.03-.06-.01-.12-.02-.18-.03-.06-.01-.12-.02-.18-.03-.06-.01-.12-.02-.18-.03-.06-.01-.12-.02-.18-.03-.06-.01-.12-.02-.18-.03-.06-.01-.12-.02-.18-.03-.06-.01-.12-.02-.18-.03-.06-.01-.12-.02-.18-.03-.06-.01-.12-.02-.18-.03-.06-.01-.12-.02-.18-.03-.06-.01-.12-.02-.18-.03-.06-.01-.12-.02-.18-.03-.06-.01-.12-.02-.18-.03-.06-.01-.12-.02-.18-.03-.06-.01-.12-.02-.18-.03-.06-.01-.12-.02-.18-.03-.06-.01-.12-.02-.18-.03-.06-.01-.12-.02-.18-.03-.06-.01-.12-.02-.18-.03-.06-.01-.12-.02-.18-.03-.06-.01-.12-.02-.18-.03-.06-.01-.12-.02-.18-.03-.06-.01-.12-.02-.18-.03-.06-.01-.12-.02-.18-.03-.06-.01-.12-.02-.18-.03-.06-.01-.12-.02-.18-.03-.06-.01-.12-.02-.18-.03-.06-.01-.12-.02-.18-.03-.06-.01-.12-.02-.18-.03-.06-.01-.12-.02-.18-.03-.06-.01-.12-.02-.18-.03-.06-.01-.12-.02-.18-.03-.06-.01-.12-.02-.18-.03-.06-.01-.12-.02-.18-.03-.06-.01-.12-.02-.18-.03-.06-.01-.12-.02-.18-.03-.06-.01-.12-.02-.18-.03-.06-.01-.12-.02-.18-.03-.06-.01-.12-.02-.18-.03-.06-.01-.12-.02-.18-.03-.06-.01-.12-.02-.18-.03-.06-.01-.12-.02-.18-.03-.06-.01-.12-.02-.18-.03-.06-.01-.12-.02-.18-.03-.06-.01-.12-.02-.18-.03-.06-.01-.12-.02-.18-.03-.06-.01-.12-.02-.18-.03-.06-.01-.12-.02-.18-.03-.06-.01-.12-.02-.18-.03-.06-.01-.12-.02-.18-.03-.06-.01-.12-.02-.18-.03-.06-.01-.12-.02-.18-.03-.06-.01-.12-.02-.18-.03-.06-.01-.12-.02-.18-.03-.06-.01-.12-.02-.18-.03-.06-.01-.12-.02-.18-.03-.06-.01-.12-.02-.18-.03-.06-.01-.12-.02-.18-.03-.06-.01-.12-.02-.18-.03-.06-.01-.12-.02-.18-.03-.06-.01-.12-.02-.18-.03-.06-.01-.12-.02-.18-.03-.06-.01-.12-.02-.18-.03-.06-.01-.12-.02-.18-.03-.06-.01-.12-.02-.18-.03-.06-.01-.12-.02-.18-.03-.06-.01-.12-.02-.18-.03-.06-.01-.12-.02-.18-.03-.06-.01-.12-.02-.18-.03-.06-.01-.12-.02-.18-.03-.06-.01-.12-.02-.18-.03-.06-.01-.12-.02-.18-.03-.06-.01-.12-.02-.18-.03-.06-.01-.12-.02-.18-.03-.06-.01-.12-.02-.18-.03-.06-.01-.12-.02-.18-.03-.06-.01-.12-.02-.18-.03-.06-.01-.12-.02-.18-.03-.06-.01-.12-.02-.18-.03-.06-.01-.12-.02-.18-.03-.06-.01-.12-.02-.18-.03-.06-.01-.12-.02-.18-.03-.06-.01-.12-.02-.18-.03-.06-.01-.12-.02-.18-.03-.06-.01-.12-.02-.18-.03-.06-.01-.12-.02-.18-.03-.06-.01-.12-.02-.18-.03-.06-.01-.12-.02-.18-.03-.06-.01-.12-.02-.18-.03-.06-.01-.12-.02-.18-.03-.06-.01-.12-.02-.18-.03-.06-.01-.12-.02-.18-.03-.06-.01-.12-.02-.18-.03-.06-.01-.12-.02-.18-.03-.06-.01-.12-.02-.18-.03-.06-.01-.12-.02-.18-.03-.06-.01-.12-.02-.18-.03-.06-.01-.12-.02-.18-.03-.06-.01-.12-.02-.18-.03-.31-.07-.62-.1-.95-.1h-14.65c-.71.9-1.64,1.62-2.71,2.06l-.44.18-.45,2.25h18.25l-24.92,81.5h-37.77l24.92-81.5h16.13l-.51-2.25-.43-.18c-1.08-.44-2.02-1.16-2.74-2.07h-12.45c-1.52,0-2.89.76-3.71,1.97-.06,0-.11-.02-.17-.03-.06-.01-.12-.02-.18-.03-.06-.01-.12-.02-.18-.03-.06-.01-.12-.02-.18-.03-.06-.01-.12-.02-.18-.03-.06-.01-.12-.02-.18-.03-.06-.01-.12-.02-.18-.03-.06-.01-.12-.02-.18-.03-.06-.01-.12-.02-.18-.03-.06-.01-.12-.02-.18-.03-.06-.01-.12-.02-.18-.03-.06-.01-.12-.02-.18-.03-.06-.01-.12-.02-.18-.03-.06-.01-.12-.02-.18-.03-.06-.01-.12-.02-.18-.03-.06-.01-.12-.02-.18-.03-.06-.01-.12-.02-.18-.03-.06-.01-.12-.02-.18-.03-.06-.01-.12-.02-.18-.03-.06-.01-.12-.02-.18-.03-.06-.01-.12-.02-.18-.03-.06-.01-.12-.02-.18-.03-.06-.01-.12-.02-.18-.03-.06-.01-.12-.02-.18-.03-.06-.01-.12-.02-.18-.03-.06-.01-.12-.02-.18-.03-.06-.01-.12-.02-.18-.03-.06-.01-.12-.02-.18-.03-.06-.01-.12-.02-.18-.03-.06-.01-.12-.02-.18-.03-.06-.01-.12-.02-.18-.03-.06-.01-.12-.02-.18-.03-.06-.01-.12-.02-.18-.03-.06-.01-.12-.02-.18-.03-.06-.01-.12-.02-.18-.03-.06-.01-.12-.02-.18-.03-.06-.01-.12-.02-.18-.03-.06-.01-.12-.02-.18-.03-.06-.01-.12-.02-.18-.03-.06-.01-.12-.02-.18-.03-.06-.01-.12-.02-.18-.03-.06-.01-.12-.02-.18-.03-.06-.01-.12-.02-.18-.03-.06-.01-.12-.02-.18-.03-.06-.01-.12-.02-.18-.03-.06-.01-.12-.02-.18-.03-.06-.01-.12-.02-.18-.03-.06-.01-.12-.02-.18-.03-.06-.01-.12-.02-.18-.03-.06-.01-.12-.02-.18-.03-.06-.01-.12-.02-.18-.03-.06-.01-.12-.02-.18-.03-.06-.01-.12-.02-.18-.03-.06-.01-.12-.02-.18-.03-.06-.01-.12-.02-.18-.03-.06-.01-.12-.02-.18-.03-.06-.01-.12-.02-.18-.03-.06-.01-.12-.02-.18-.03-.06-.01-.12-.02-.18-.03-.06-.01-.12-.02-.18-.03-.06-.01-.12-.02-.18-.03-.06-.01-.12-.02-.18-.03-.06-.01-.12-.02-.18-.03-.06-.01-.12-.02-.18-.03-.06-.01-.12-.02-.18-.03-.06-.01-.12-.02-.18-.03-.06-.01-.12-.02-.18-.03-.06-.01-.12-.02-.18-.03-.06-.01-.12-.02-.18-.03-.06-.01-.12-.02-.18-.03-.06-.01-.12-.02-.18-.03-.26-.05-.52-.07-.79-.07h-41.09c-1.09,0-2.14.4-2.96,1.11l-13.38,11.7-4.33-7.8c-.71-1.27-1.98-2.11-3.4-2.28-.06,0-.12-.02-.18-.03-.06,0-.12-.02-.18-.03-.06,0-.12-.02-.18-.03-.06,0-.12-.02-.18-.03-.06,0-.12-.02-.18-.03-.06,0-.12-.02-.18-.03-.06,0-.12-.02-.18-.03-.06,0-.12-.02-.18-.03-.06,0-.12-.02-.18-.03-.06,0-.12-.02-.18-.03-.06,0-.12-.02-.18-.03-.06,0-.12-.02-.18-.03-.06,0-.12-.02-.18-.03-.06,0-.12-.02-.18-.03-.06,0-.12-.02-.18-.03-.06,0-.12-.02-.18-.03-.06,0-.12-.02-.18-.03-.06,0-.12-.02-.18-.03-.06,0-.12-.02-.18-.03-.06,0-.12-.02-.18-.03-.06,0-.12-.02-.18-.03-.06,0-.12-.02-.18-.03-.06,0-.12-.02-.18-.03-.06,0-.12-.02-.18-.03-.06,0-.12-.02-.18-.03-.06,0-.12-.02-.18-.03-.06,0-.12-.02-.18-.03-.06,0-.12-.02-.18-.03-.06,0-.12-.02-.18-.03-.06,0-.12-.02-.18-.03-.06,0-.12-.02-.18-.03-.06,0-.12-.02-.18-.03-.06,0-.12-.02-.18-.03-.06,0-.12-.02-.18-.03-.06,0-.12-.02-.18-.03-.06,0-.12-.02-.18-.03-.06,0-.12-.02-.18-.03-.06,0-.12-.02-.18-.03-.06,0-.12-.02-.18-.03-.06,0-.12-.02-.18-.03-.06,0-.12-.02-.18-.03-.06,0-.12-.02-.18-.03-.06,0-.12-.02-.18-.03-.06,0-.12-.02-.18-.03-.06,0-.12-.02-.18-.03-.06,0-.12-.02-.18-.03-.06,0-.12-.02-.18-.03-.06,0-.12-.02-.18-.03-.06,0-.12-.02-.18-.03-.06,0-.12-.02-.18-.03-.06,0-.12-.02-.18-.03-.06,0-.12-.02-.18-.03-.06,0-.12-.02-.18-.03-.06,0-.12-.02-.18-.03-.06,0-.12-.02-.18-.03-.06,0-.12-.02-.18-.03-.06,0-.12-.02-.18-.03-.06,0-.12-.02-.18-.03-.06,0-.12-.02-.18-.03-.06,0-.12-.02-.18-.03-.06,0-.12-.02-.18-.03-.06,0-.12-.02-.18-.03-.06,0-.12-.02-.18-.03-.06,0-.12-.02-.18-.03-.06,0-.12-.02-.18-.03-.06,0-.12-.02-.18-.03-.06,0-.12-.02-.18-.03-.06,0-.12-.02-.18-.03-.06,0-.12-.02-.18-.03-.06,0-.12-.02-.18-.03-.06,0-.12-.02-.18-.03-.06,0-.12-.02-.18-.03-.06,0-.12-.02-.18-.03-.06,0-.12-.02-.18-.03-.06,0-.12-.02-.18-.03-.06,0-.12-.02-.18-.03-.06,0-.12-.02-.18-.03-.06,0-.12-.02-.18-.03-.06,0-.12-.02-.18-.03-.06,0-.12-.02-.18-.03-.06,0-.12-.02-.18-.03-.06,0-.12-.02-.18-.03-.06,0-.12-.02-.18-.03-.06,0-.12-.02-.18-.03-.06,0-.12-.02-.18-.03-.06,0-.12-.02-.18-.03-.06,0-.12-.02-.18-.03-.06,0-.12-.02-.18-.03-.06,0-.12-.02-.18-.03-.06,0-.12-.02-.18-.03-.06,0-.12-.02-.18-.03-.06,0-.12-.02-.18-.03-.06,0-.12-.02-.18-.03-.06,0-.12-.02-.18-.03-.06,0-.12-.02-.18-.03-.06,0-.12-.02-.18-.03-.06,0-.12-.02-.18-.03-.06,0-.12-.02-.18-.03-.06,0-.12-.02-.18-.03-.06,0-.12-.02-.18-.03-.23-.04-.47-.06-.71-.06h-36.05c-1.86-2.58-4.11-4.97-6.76-7.18-8.38-6.98-20.11-11.49-35.53-13.62-.06,0-.12-.02-.18-.03-.06,0-.12-.02-.18-.03-.06,0-.12-.02-.18-.03-.06,0-.12-.02-.18-.03-.06,0-.12-.02-.18-.03-.06,0-.12-.02-.18-.03-.06,0-.12-.02-.18-.03-.06,0-.12-.02-.18-.03-.06,0-.12-.02-.18-.03-.06,0-.12-.02-.18-.03-.06,0-.12-.02-.18-.03-.06,0-.12-.02-.18-.03-.06,0-.12-.02-.18-.03-.06,0-.12-.02-.18-.03-.06,0-.12-.02-.18-.03-.06,0-.12-.02-.18-.03-.06,0-.12-.02-.18-.03-.06,0-.12-.02-.18-.03-.06,0-.12-.02-.18-.03-.06,0-.12-.02-.18-.03-.06,0-.12-.02-.18-.03-.06,0-.12-.02-.18-.03-.06,0-.12-.02-.18-.03-.06,0-.12-.02-.18-.03-.06,0-.12-.02-.18-.03-.06,0-.12-.02-.18-.03-.06,0-.12-.02-.18-.03-.06,0-.12-.02-.18-.03-.06,0-.12-.02-.18-.03-.06,0-.12-.02-.18-.03-.06,0-.12-.02-.18-.03-.06,0-.12-.02-.18-.03-.06,0-.12-.02-.18-.03-.06,0-.12-.02-.18-.03-.06,0-.12-.02-.18-.03-.06,0-.12-.02-.18-.03-.06,0-.12-.02-.18-.03-.06,0-.12-.02-.18-.03-.06,0-.12-.02-.18-.03-.06,0-.12-.02-.18-.03-.06,0-.12-.02-.18-.03-.06,0-.12-.02-.18-.03-.06,0-.12-.02-.18-.03-.06,0-.12-.02-.18-.03-.06,0-.12-.02-.18-.03-.06,0-.12-.02-.18-.03-.06,0-.12-.02-.18-.03-.06,0-.12-.02-.18-.03-.06,0-.12-.02-.18-.03-.06,0-.12-.02-.18-.03-.06,0-.12-.02-.18-.03-.06,0-.12-.02-.18-.03-.06,0-.12-.02-.18-.03-.06,0-.12-.02-.18-.03-.06,0-.12-.02-.18-.03-.06,0-.12-.02-.18-.03-.06,0-.12-.02-.18-.03-.06,0-.12-.02-.18-.03-.06,0-.12-.02-.18-.03-.06,0-.12-.02-.18-.03-.06,0-.12-.02-.18-.03-.06,0-.12-.02-.18-.03-.06,0-.12-.02-.18-.03-.06,0-.12-.02-.18-.03-.06,0-.12-.02-.18-.03-.06,0-.12-.02-.18-.03-.06,0-.12-.02-.18-.03-.06,0-.12-.02-.18-.03-.06,0-.12-.02-.18-.03-.06,0-.12-.02-.18-.03-.06,0-.12-.02-.18-.03-.06,0-.12-.02-.18-.03-.06,0-.12-.02-.18-.03-.06,0-.12-.02-.18-.03-.06,0-.12-.02-.18-.03-.06,0-.12-.02-.18-.03-.06,0-.12-.02-.18-.03-.06,0-.12-.02-.18-.03-.06,0-.12-.02-.18-.03-.06,0-.12-.02-.18-.03-.06,0-.12-.02-.18-.03-.06,0-.12-.02-.18-.03-.06,0-.12-.02-.18-.03-.06,0-.12-.02-.18-.03-.06,0-.12-.02-.18-.03-.06,0-.12-.02-.18-.03-.06,0-.12-.02-.18-.03-.06,0-.12-.02-.18-.03-.06,0-.12-.02-.18-.03-.06,0-.12-.02-.18-.03-.06,0-.12-.02-.18-.03-.06,0-.12-.02-.18-.03-.06,0-.12-.02-.18-.03-.06,0-.12-.02-.18-.03-.06,0-.12-.02-.18-.03-.06,0-.12-.02-.18-.03-.06,0-.12-.02-.18-.03-.06,0-.12-.02-.18-.03-.06,0-.12-.02-.18-.03-.06,0-.12-.02-.18-.03-7.04-.99-14.86-1.48-23.48-1.48-26.08,0-48.3,4.99-66.05,14.84-18.13,10.06-30.13,24.37-35.69,42.53-4.1,13.42-3.48,24.9,1.85,34.12,5.23,9.05,13.66,15.72,25.06,19.83,3.93,1.42,8.37,2.58,13.29,3.49h-12.14c-1.56,0-2.97.81-3.78,2.08-.05-.01-.11-.01-.17-.02-.06-.01-.12-.02-.18-.03-.06-.01-.12-.02-.18-.03-.06-.01-.12-.02-.18-.03-.06-.01-.12-.02-.18-.03-.06-.01-.12-.02-.18-.03-.06-.01-.12-.02-.18-.03-.06-.01-.12-.02-.18-.03-.06-.01-.12-.02-.18-.03-.06-.01-.12-.02-.18-.03-.06-.01-.12-.02-.18-.03-.06-.01-.12-.02-.18-.03-.06-.01-.12-.02-.18-.03-.06-.01-.12-.02-.18-.03-.06-.01-.12-.02-.18-.03-.06-.01-.12-.02-.18-.03-.06-.01-.12-.02-.18-.03-.06-.01-.12-.02-.18-.03-.06-.01-.12-.02-.18-.03-.06-.01-.12-.02-.18-.03-.06-.01-.12-.02-.18-.03-.06-.01-.12-.02-.18-.03-.06-.01-.12-.02-.18-.03-.06-.01-.12-.02-.18-.03-.06-.01-.12-.02-.18-.03-.06-.01-.12-.02-.18-.03-.06-.01-.12-.02-.18-.03-.06-.01-.12-.02-.18-.03-.06-.01-.12-.02-.18-.03-.06-.01-.12-.02-.18-.03-.06-.01-.12-.02-.18-.03-.06-.01-.12-.02-.18-.03-.06-.01-.12-.02-.18-.03-.06-.01-.12-.02-.18-.03-.06-.01-.12-.02-.18-.03-.06-.01-.12-.02-.18-.03-.06-.01-.12-.02-.18-.03-.06-.01-.12-.02-.18-.03-.06-.01-.12-.02-.18-.03-.06-.01-.12-.02-.18-.03-.06-.01-.12-.02-.18-.03-.06-.01-.12-.02-.18-.03-.06-.01-.12-.02-.18-.03-.06-.01-.12-.02-.18-.03-.06-.01-.12-.02-.18-.03-.06-.01-.12-.02-.18-.03-.06-.01-.12-.02-.18-.03-.06-.01-.12-.02-.18-.03-.06-.01-.12-.02-.18-.03-.06-.01-.12-.02-.18-.03-.06-.01-.12-.02-.18-.03-.06-.01-.12-.02-.18-.03-.06-.01-.12-.02-.18-.03-.06-.01-.12-.02-.18-.03-.06-.01-.12-.02-.18-.03-.06-.01-.12-.02-.18-.03-.06-.01-.12-.02-.18-.03-.06-.01-.12-.02-.18-.03-.06-.01-.12-.02-.18-.03-.06-.01-.12-.02-.18-.03-.06-.01-.12-.02-.18-.03-.06-.01-.12-.02-.18-.03-.06-.01-.12-.02-.18-.03-.06-.01-.12-.02-.18-.03-.06-.01-.12-.02-.18-.03-.06-.01-.12-.02-.18-.03-.06-.01-.12-.02-.18-.03-.06-.01-.12-.02-.18-.03-.06-.01-.12-.02-.18-.03-.06-.01-.12-.02-.18-.03-.06-.01-.12-.02-.18-.03-.06-.01-.12-.02-.18-.03-.06-.01-.12-.02-.18-.03-.06-.01-.12-.02-.18-.03-.31-.07-.62-.1-.95-.1H41.31c-2.01,0-3.77,1.33-4.32,3.26l-26.36,91.92c-.39,1.36-.12,2.82.73,3.95.75,1,1.88,1.63,3.11,1.76.06,0,.12.02.18.03.06,0,.12.02.18.03.06,0,.12.02.18.03.06,0,.12.02.18.03.06,0,.12.02.18.03.06,0,.12.02.18.03.06,0,.12.02.18.03.06,0,.12.02.18.03.06,0,.12.02.18.03.06,0,.12.02.18.03.06,0,.12.02.18.03.06,0,.12.02.18.03.06,0,.12.02.18.03.06,0,.12.02.18.03.06,0,.12.02.18.03.06,0,.12.02.18.03.06,0,.12.02.18.03.06,0,.12.02.18.03.06,0,.12.02.18.03.06,0,.12.02.18.03.06,0,.12.02.18.03.06,0,.12.02.18.03.06,0,.12.02.18.03.06,0,.12.02.18.03.06,0,.12.02.18.03.06,0,.12.02.18.03.06,0,.12.02.18.03.06,0,.12.02.18.03.06,0,.12.02.18.03.06,0,.12.02.18.03.06,0,.12.02.18.03.06,0,.12.02.18.03.06,0,.12.02.18.03.06,0,.12.02.18.03.06,0,.12.02.18.03.06,0,.12.02.18.03.06,0,.12.02.18.03.06,0,.12.02.18.03.06,0,.12.02.18.03.06,0,.12.02.18.03.06,0,.12.02.18.03.06,0,.12.02.18.03.06,0,.12.02.18.03.06,0,.12.02.18.03.06,0,.12.02.18.03.06,0,.12.02.18.03.06,0,.12.02.18.03.06,0,.12.02.18.03.06,0,.12.02.18.03.06,0,.12.02.18.03.06,0,.12.02.18.03.06,0,.12.02.18.03.06,0,.12.02.18.03.06,0,.12.02.18.03.06,0,.12.02.18.03.06,0,.12.02.18.03.06,0,.12.02.18.03.06,0,.12.02.18.03.06,0,.12.02.18.03.06,0,.12.02.18.03.06,0,.12.02.18.03.06,0,.12.02.18.03.06,0,.12.02.18.03.06,0,.12.02.18.03.06,0,.12.02.18.03.06,0,.12.02.18.03.06,0,.12.02.18.03.06,0,.12.02.18.03.06,0,.12.02.18.03.06,0,.12.02.18.03.06,0,.12.02.18.03.06,0,.12.02.18.03.06,0,.12.02.18.03.06,0,.12.02.18.03.06,0,.12.02.18.03.06,0,.12.02.18.03.06,0,.12.02.18.03.06,0,.12.02.18.03.06,0,.12.02.18.03.06,0,.12.02.18.03.06,0,.12.02.18.03.06,0,.12.02.18.03.06,0,.12.02.18.03.06,0,.12.02.18.03.06,0,.12.02.18.03.06,0,.12.02.18.03.06,0,.12.02.18.03.06,0,.12.02.18.03.06,0,.12.02.18.03.06,0,.12.02.18.03.06,0,.12.02.18.03.06,0,.12.02.18.03.06,0,.12.02.18.03.06,0,.12.02.18.03.06,0,.12.02.18.03.06,0,.12.02.18.03.06,0,.12.02.18.03.06,0,.12.02.18.03.06,0,.12.02.18.03.06,0,.12.02.18.03.22.03.44.06.66.06h33.97c2.01,0,3.77-1.33,4.32-3.26l9.84-34.3h39.02c.14,0,.28-.02.42-.03l-8.36,29.16c-.39,1.36-.12,2.82.73,3.95.75,1,1.88,1.63,3.11,1.76.06,0,.12.02.18.03.06,0,.12.02.18.03.06,0,.12.02.18.03.06,0,.12.02.18.03.06,0,.12.02.18.03.06,0,.12.02.18.03.06,0,.12.02.18.03.06,0,.12.02.18.03.06,0,.12.02.18.03.06,0,.12.02.18.03.06,0,.12.02.18.03.06,0,.12.02.18.03.06,0,.12.02.18.03.06,0,.12.02.18.03.06,0,.12.02.18.03.06,0,.12.02.18.03.06,0,.12.02.18.03.06,0,.12.02.18.03.06,0,.12.02.18.03.06,0,.12.02.18.03.06,0,.12.02.18.03.06,0,.12.02.18.03.06,0,.12.02.18.03.06,0,.12.02.18.03.06,0,.12.02.18.03.06,0,.12.02.18.03.06,0,.12.02.18.03.06,0,.12.02.18.03.06,0,.12.02.18.03.06,0,.12.02.18.03.06,0,.12.02.18.03.06,0,.12.02.18.03.06,0,.12.02.18.03.06,0,.12.02.18.03.06,0,.12.02.18.03.06,0,.12.02.18.03.06,0,.12.02.18.03.06,0,.12.02.18.03.06,0,.12.02.18.03.06,0,.12.02.18.03.06,0,.12.02.18.03.06,0,.12.02.18.03.06,0,.12.02.18.03.06,0,.12.02.18.03.06,0,.12.02.18.03.06,0,.12.02.18.03.06,0,.12.02.18.03.06,0,.12.02.18.03.06,0,.12.02.18.03.06,0,.12.02.18.03.06,0,.12.02.18.03.06,0,.12.02.18.03.06,0,.12.02.18.03.06,0,.12.02.18.03.06,0,.12.02.18.03.06,0,.12.02.18.03.06,0,.12.02.18.03.06,0,.12.02.18.03.06,0,.12.02.18.03.06,0,.12.02.18.03.06,0,.12.02.18.03.06,0,.12.02.18.03.06,0,.12.02.18.03.06,0,.12.02.18.03.06,0,.12.02.18.03.06,0,.12.02.18.03.06,0,.12.02.18.03.06,0,.12.02.18.03.06,0,.12.02.18.03.06,0,.12.02.18.03.06,0,.12.02.18.03.06,0,.12.02.18.03.06,0,.12.02.18.03.06,0,.12.02.18.03.06,0,.12.02.18.03.06,0,.12.02.18.03.06,0,.12.02.18.03.06,0,.12.02.18.03.06,0,.12.02.18.03.06,0,.12.02.18.03.06,0,.12.02.18.03.06,0,.12.02.18.03.06,0,.12.02.18.03.06,0,.12.02.18.03.06,0,.12.02.18.03.06,0,.12.02.18.03.06,0,.12.02.18.03.06,0,.12.02.18.03.06,0,.12.02.18.03.06,0,.12.02.18.03.06,0,.12.02.18.03.06,0,.12.02.18.03.06,0,.12.02.18.03.06,0,.12.02.18.03.06,0,.12.02.18.03.06,0,.12.02.18.03.06,0,.12.02.18.03.06,0,.12.02.18.03.06,0,.12.02.18.03.06,0,.12.02.18.03.22.03.44.06.66.06h33.97c2.01,0,3.77-1.33,4.32-3.26l4.36-15.22,4.56,12.79c.57,1.6,1.98,2.72,3.63,2.94.06.01.12.02.18.03.06.01.12.02.18.03.06.01.12.02.18.03.06.01.12.02.18.03.06.01.12.02.18.03.06.01.12.02.18.03.06.01.12.02.18.03.06.01.12.02.18.03.06.01.12.02.18.03.06.01.12.02.18.03.06.01.12.02.18.03.06.01.12.02.18.03.06.01.12.02.18.03.06.01.12.02.18.03.06.01.12.02.18.03.06.01.12.02.18.03.06.01.12.02.18.03.06.01.12.02.18.03.06.01.12.02.18.03.06.01.12.02.18.03.06.01.12.02.18.03.06.01.12.02.18.03.06.01.12.02.18.03.06.01.12.02.18.03.06.01.12.02.18.03.06.01.12.02.18.03.06.01.12.02.18.03.06.01.12.02.18.03.06.01.12.02.18.03.06.01.12.02.18.03.06.01.12.02.18.03.06.01.12.02.18.03.06.01.12.02.18.03.06.01.12.02.18.03.06.01.12.02.18.03.06.01.12.02.18.03.06.01.12.02.18.03.06.01.12.02.18.03.06.01.12.02.18.03.06.01.12.02.18.03.06.01.12.02.18.03.06.01.12.02.18.03.06.01.12.02.18.03.06.01.12.02.18.03.06.01.12.02.18.03.06.01.12.02.18.03.06.01.12.02.18.03.06.01.12.02.18.03.06.01.12.02.18.03.06.01.12.02.18.03.06.01.12.02.18.03.06.01.12.02.18.03.06.01.12.02.18.03.06.01.12.02.18.03.06.01.12.02.18.03.06.01.12.02.18.03.06.01.12.02.18.03.06.01.12.02.18.03.06.01.12.02.18.03.06.01.12.02.18.03.06.01.12.02.18.03.06.01.12.02.18.03.06.01.12.02.18.03.06.01.12.02.18.03.06.01.12.02.18.03.06.01.12.02.18.03.06.01.12.02.18.03.06.01.12.02.18.03.06.01.12.02.18.03.06.01.12.02.18.03.06.01.12.02.18.03.06.01.12.02.18.03.06.01.12.02.18.03.06.01.12.02.18.03.06.01.12.02.18.03.06.01.12.02.18.03.06.01.12.02.18.03.06.01.12.02.18.03.06.01.12.02.18.03.06.01.12.02.18.03.06.01.12.02.18.03.06.01.12.02.18.03.06.01.12.02.18.03.06.01.12.02.18.03.06.01.12.02.18.03.06.01.12.02.18.03.06.01.12.02.18.03.06.01.12.02.18.03.06.01.12.02.18.03.06.01.12.02.18.03.06.01.12.02.18.03.06.01.12.02.18.03.06.01.12.02.18.03.06.01.12.02.18.03.06.01.12.02.18.03.06.01.12.02.18.03.06.01.12.02.18.03.06.01.12.02.18.03.06.01.12.02.18.03.06.01.12.02.18.03.26.05.52.07.78.07h38.22c1.05,0,2.05-.37,2.85-1.02.02,0,.04,0,.06,0,.06,0,.12.02.18.03.06,0,.12.02.18.03.06,0,.12.02.18.03.06,0,.12.02.18.03.06,0,.12.02.18.03.06,0,.12.02.18.03.06,0,.12.02.18.03.06,0,.12.02.18.03.06,0,.12.02.18.03.06,0,.12.02.18.03.06,0,.12.02.18.03.06,0,.12.02.18.03.06,0,.12.02.18.03.06,0,.12.02.18.03.06,0,.12.02.18.03.06,0,.12.02.18.03.06,0,.12.02.18.03.06,0,.12.02.18.03.06,0,.12.02.18.03.06,0,.12.02.18.03.06,0,.12.02.18.03.06,0,.12.02.18.03.06,0,.12.02.18.03.06,0,.12.02.18.03.06,0,.12.02.18.03.06,0,.12.02.18.03.06,0,.12.02.18.03.06,0,.12.02.18.03.06,0,.12.02.18.03.06,0,.12.02.18.03.06,0,.12.02.18.03.06,0,.12.02.18.03.06,0,.12.02.18.03.06,0,.12.02.18.03.06,0,.12.02.18.03.06,0,.12.02.18.03.22.03.44.06.66.06h92.28c2.01,0,3.77-1.33,4.32-3.26l1.93-6.73c4.53,3.93,11.45,6.54,20.96,7.85.06,0,.12.02.18.03.06,0,.12.02.18.03.06,0,.12.02.18.03.06,0,.12.02.18.03.06,0,.12.02.18.03.06,0,.12.02.18.03.06,0,.12.02.18.03.06,0,.12.02.18.03.06,0,.12.02.18.03.06,0,.12.02.18.03.06,0,.12.02.18.03.06,0,.12.02.18.03.06,0,.12.02.18.03.06,0,.12.02.18.03.06,0,.12.02.18.03.06,0,.12.02.18.03.06,0,.12.02.18.03.06,0,.12.02.18.03.06,0,.12.02.18.03.06,0,.12.02.18.03.06,0,.12.02.18.03.06,0,.12.02.18.03.06,0,.12.02.18.03.06,0,.12.02.18.03.06,0,.12.02.18.03.06,0,.12.02.18.03.06,0,.12.02.18.03.06,0,.12.02.18.03.06,0,.12.02.18.03.06,0,.12.02.18.03.06,0,.12.02.18.03.06,0,.12.02.18.03.06,0,.12.02.18.03.06,0,.12.02.18.03.06,0,.12.02.18.03.06,0,.12.02.18.03.06,0,.12.02.18.03.06,0,.12.02.18.03.06,0,.12.02.18.03.06,0,.12.02.18.03.06,0,.12.02.18.03.06,0,.12.02.18.03.06,0,.12.02.18.03.06,0,.12.02.18.03.06,0,.12.02.18.03.06,0,.12.02.18.03.06,0,.12.02.18.03.06,0,.12.02.18.03.06,0,.12.02.18.03.06,0,.12.02.18.03.06,0,.12.02.18.03.06,0,.12.02.18.03.06,0,.12.02.18.03.06,0,.12.02.18.03.06,0,.12.02.18.03.06,0,.12.02.18.03.06,0,.12.02.18.03.06,0,.12.02.18.03.06,0,.12.02.18.03.06,0,.12.02.18.03.06,0,.12.02.18.03.06,0,.12.02.18.03.06,0,.12.02.18.03.06,0,.12.02.18.03.06,0,.12.02.18.03.06,0,.12.02.18.03.06,0,.12.02.18.03.06,0,.12.02.18.03.06,0,.12.02.18.03.06,0,.12.02.18.03.06,0,.12.02.18.03.06,0,.12.02.18.03.06,0,.12.02.18.03.06,0,.12.02.18.03.06,0,.12.02.18.03.06,0,.12.02.18.03.06,0,.12.02.18.03.06,0,.12.02.18.03.06,0,.12.02.18.03.06,0,.12.02.18.03.06,0,.12.02.18.03.06,0,.12.02.18.03.06,0,.12.02.18.03.06,0,.12.02.18.03.06,0,.12.02.18.03.06,0,.12.02.18.03.06,0,.12.02.18.03.06,0,.12.02.18.03.06,0,.12.02.18.03.06,0,.12.02.18.03.06,0,.12.02.18.03.06,0,.12.02.18.03.06,0,.12.02.18.03.06,0,.12.02.18.03.06,0,.12.02.18.03.06,0,.12.02.18.03.06,0,.12.02.18.03.06,0,.12.02.18.03.06,0,.12.02.18.03.06,0,.12.02.18.03,4.94.69,10.57,1.04,16.92,1.04,11.04,0,20.75-1.38,28.88-4.09,6.53-2.18,12.32-5.22,17.31-9.05l-.9,3.13c-.39,1.36-.12,2.82.73,3.95.75,1,1.88,1.63,3.11,1.76.06,0,.12.02.18.03.06,0,.12.02.18.03.06,0,.12.02.18.03.06,0,.12.02.18.03.06,0,.12.02.18.03.06,0,.12.02.18.03.06,0,.12.02.18.03.06,0,.12.02.18.03.06,0,.12.02.18.03.06,0,.12.02.18.03.06,0,.12.02.18.03.06,0,.12.02.18.03.06,0,.12.02.18.03.06,0,.12.02.18.03.06,0,.12.02.18.03.06,0,.12.02.18.03.06,0,.12.02.18.03.06,0,.12.02.18.03.06,0,.12.02.18.03.06,0,.12.02.18.03.06,0,.12.02.18.03.06,0,.12.02.18.03.06,0,.12.02.18.03.06,0,.12.02.18.03.06,0,.12.02.18.03.06,0,.12.02.18.03.06,0,.12.02.18.03.06,0,.12.02.18.03.06,0,.12.02.18.03.06,0,.12.02.18.03.06,0,.12.02.18.03.06,0,.12.02.18.03.06,0,.12.02.18.03.06,0,.12.02.18.03.06,0,.12.02.18.03.06,0,.12.02.18.03.06,0,.12.02.18.03.06,0,.12.02.18.03.06,0,.12.02.18.03.06,0,.12.02.18.03.06,0,.12.02.18.03.06,0,.12.02.18.03.06,0,.12.02.18.03.06,0,.12.02.18.03.06,0,.12.02.18.03.06,0,.12.02.18.03.06,0,.12.02.18.03.06,0,.12.02.18.03.06,0,.12.02.18.03.06,0,.12.02.18.03.06,0,.12.02.18.03.06,0,.12.02.18.03.06,0,.12.02.18.03.06,0,.12.02.18.03.06,0,.12.02.18.03.06,0,.12.02.18.03.06,0,.12.02.18.03.06,0,.12.02.18.03.06,0,.12.02.18.03.06,0,.12.02.18.03.06,0,.12.02.18.03.06,0,.12.02.18.03.06,0,.12.02.18.03.06,0,.12.02.18.03.06,0,.12.02.18.03.06,0,.12.02.18.03.06,0,.12.02.18.03.06,0,.12.02.18.03.06,0,.12.02.18.03.06,0,.12.02.18.03.06,0,.12.02.18.03.06,0,.12.02.18.03.06,0,.12.02.18.03.06,0,.12.02.18.03.06,0,.12.02.18.03.06,0,.12.02.18.03.06,0,.12.02.18.03.06,0,.12.02.18.03.06,0,.12.02.18.03.06,0,.12.02.18.03.06,0,.12.02.18.03.06,0,.12.02.18.03.06,0,.12.02.18.03.06,0,.12.02.18.03.06,0,.12.02.18.03.06,0,.12.02.18.03.06,0,.12.02.18.03.06,0,.12.02.18.03.06,0,.12.02.18.03.06,0,.12.02.18.03.06,0,.12.02.18.03.06,0,.12.02.18.03.06,0,.12.02.18.03.06,0,.12.02.18.03.06,0,.12.02.18.03.06,0,.12.02.18.03.06,0,.12.02.18.03.06,0,.12.02.18.03.06,0,.12.02.18.03.06,0,.12.02.18.03.22.03.44.06.66.06h33.82c2.01,0,3.77-1.33,4.32-3.26l9.73-33.93h8.84l-8.24,28.75c-.39,1.36-.12,2.82.73,3.95.75,1,1.88,1.63,3.11,1.76.06,0,.12.02.18.03.06,0,.12.02.18.03.06,0,.12.02.18.03.06,0,.12.02.18.03.06,0,.12.02.18.03.06,0,.12.02.18.03.06,0,.12.02.18.03.06,0,.12.02.18.03.06,0,.12.02.18.03.06,0,.12.02.18.03.06,0,.12.02.18.03.06,0,.12.02.18.03.06,0,.12.02.18.03.06,0,.12.02.18.03.06,0,.12.02.18.03.06,0,.12.02.18.03.06,0,.12.02.18.03.06,0,.12.02.18.03.06,0,.12.02.18.03.06,0,.12.02.18.03.06,0,.12.02.18.03.06,0,.12.02.18.03.06,0,.12.02.18.03.06,0,.12.02.18.03.06,0,.12.02.18.03.06,0,.12.02.18.03.06,0,.12.02.18.03.06,0,.12.02.18.03.06,0,.12.02.18.03.06,0,.12.02.18.03.06,0,.12.02.18.03.06,0,.12.02.18.03.06,0,.12.02.18.03.06,0,.12.02.18.03.06,0,.12.02.18.03.06,0,.12.02.18.03.06,0,.12.02.18.03.06,0,.12.02.18.03.06,0,.12.02.18.03.06,0,.12.02.18.03.06,0,.12.02.18.03.06,0,.12.02.18.03.06,0,.12.02.18.03.06,0,.12.02.18.03.06,0,.12.02.18.03.06,0,.12.02.18.03.06,0,.12.02.18.03.06,0,.12.02.18.03.06,0,.12.02.18.03.06,0,.12.02.18.03.06,0,.12.02.18.03.06,0,.12.02.18.03.06,0,.12.02.18.03.06,0,.12.02.18.03.06,0,.12.02.18.03.06,0,.12.02.18.03.06,0,.12.02.18.03.06,0,.12.02.18.03.06,0,.12.02.18.03.06,0,.12.02.18.03.06,0,.12.02.18.03.06,0,.12.02.18.03.06,0,.12.02.18.03.06,0,.12.02.18.03.06,0,.12.02.18.03.06,0,.12.02.18.03.06,0,.12.02.18.03.06,0,.12.02.18.03.06,0,.12.02.18.03.06,0,.12.02.18.03.06,0,.12.02.18.03.06,0,.12.02.18.03.06,0,.12.02.18.03.06,0,.12.02.18.03.06,0,.12.02.18.03.06,0,.12.02.18.03.06,0,.12.02.18.03.06,0,.12.02.18.03.06,0,.12.02.18.03.06,0,.12.02.18.03.06,0,.12.02.18.03.06,0,.12.02.18.03.06,0,.12.02.18.03.06,0,.12.02.18.03.06,0,.12.02.18.03.06,0,.12.02.18.03.06,0,.12.02.18.03.06,0,.12.02.18.03.06,0,.12.02.18.03.06,0,.12.02.18.03.06,0,.12.02.18.03.06,0,.12.02.18.03.06,0,.12.02.18.03.06,0,.12.02.18.03.06,0,.12.02.18.03.06,0,.12.02.18.03.06,0,.12.02.18.03.06,0,.12.02.18.03.06,0,.12.02.18.03.06,0,.12.02.18.03.22.03.44.06.66.06h33.97c2.01,0,3.77-1.33,4.32-3.26l26.31-91.76c.14-.44.22-.91.22-1.4,0-2.22-1.61-4.05-3.73-4.42ZM427.12,56.33l-15.82,51.73-17.41-25.51,33.23-26.22ZM336.16,39.45l13.92,25.07,28.67-25.07h41.09l-50.03,39.47,28.69,42.03h-42.34l-16.08-26.19-32.09,26.19h-42.09l55.05-42.47-26.31-39.03h41.51ZM369.88,127.59c-.06-.01-.12-.02-.18-.03-.06-.01-.12-.02-.18-.03-.06-.01-.12-.02-.18-.03-.06-.01-.12-.02-.18-.03-.06-.01-.12-.02-.18-.03-.06-.01-.12-.02-.18-.03-.06-.01-.12-.02-.18-.03-.06-.01-.12-.02-.18-.03-.06-.01-.12-.02-.18-.03-.06-.01-.12-.02-.18-.03-.06-.01-.12-.02-.18-.03-.06-.01-.12-.02-.18-.03-.06-.01-.12-.02-.18-.03-.06-.01-.12-.02-.18-.03-.06-.01-.12-.02-.18-.03-.06-.01-.12-.02-.18-.03-.06-.01-.12-.02-.18-.03-.06-.01-.12-.02-.18-.03-.06-.01-.12-.02-.18-.03-.06-.01-.12-.02-.18-.03-.06-.01-.12-.02-.18-.03-.06-.01-.12-.02-.18-.03-.06-.01-.12-.02-.18-.03-.06-.01-.12-.02-.18-.03-.06-.01-.12-.02-.18-.03-.06-.01-.12-.02-.18-.03-.06-.01-.12-.02-.18-.03-.06-.01-.12-.02-.18-.03-.06-.01-.12-.02-.18-.03-.06-.01-.12-.02-.18-.03-.06-.01-.12-.02-.18-.03-.06-.01-.12-.02-.18-.03-.06-.01-.12-.02-.18-.03-.06-.01-.12-.02-.18-.03-.06-.01-.12-.02-.18-.03-.06-.01-.12-.02-.18-.03-.06-.01-.12-.02-.18-.03-.06-.01-.12-.02-.18-.03-.06-.01-.12-.02-.18-.03-.06-.01-.12-.02-.18-.03-.06-.01-.12-.02-.18-.03-.06-.01-.12-.02-.18-.03-.06-.01-.12-.02-.18-.03-.06-.01-.12-.02-.18-.03-.06-.01-.12-.02-.18-.03-.06-.01-.12-.02-.18-.03-.06-.01-.12-.02-.18-.03-.06-.01-.12-.02-.18-.03-.06-.01-.12-.02-.18-.03-.06-.01-.12-.02-.18-.03-.06-.01-.12-.02-.18-.03-.06-.01-.12-.02-.18-.03-.06-.01-.12-.02-.18-.03-.06-.01-.12-.02-.18-.03-.06-.01-.12-.02-.18-.03-.06-.01-.12-.02-.18-.03-.06-.01-.12-.02-.18-.03-.06-.01-.12-.02-.18-.03-.06-.01-.12-.02-.18-.03-.06-.01-.12-.02-.18-.03-.06-.01-.12-.02-.18-.03-.06-.01-.12-.02-.18-.03-.06-.01-.12-.02-.18-.03-.06-.01-.12-.02-.18-.03-.06-.01-.12-.02-.18-.03-.06-.01-.12-.02-.18-.03-.06-.01-.12-.02-.18-.03-.06-.01-.12-.02-.18-.03-.06-.01-.12-.02-.18-.03-.06-.01-.12-.02-.18-.03-.06-.01-.12-.02-.18-.03-.06-.01-.12-.02-.18-.03-.06-.01-.12-.02-.18-.03-.06-.01-.12-.02-.18-.03-.06-.01-.12-.02-.18-.03-.06-.01-.12-.02-.18-.03-.06-.01-.12-.02-.18-.03-.06-.01-.12-.02-.18-.03-.06-.01-.12-.02-.18-.03-.06-.01-.12-.02-.18-.03-.06-.01-.12-.02-.18-.03-.06-.01-.12-.02-.18-.03-.06-.01-.12-.02-.18-.03-.06-.01-.12-.02-.18-.03-.06-.01-.12-.02-.18-.03-.06-.01-.12-.02-.18-.03-.06-.01-.12-.02-.18-.03-.06-.01-.12-.02-.18-.03-.06-.01-.12-.02-.18-.03-.06-.01-.12-.02-.18-.03-.06-.01-.12-.02-.18-.03-.06-.01-.12-.02-.18-.03-.06-.01-.12-.02-.18-.03-.06-.01-.12-.02-.18-.03-.06-.01-.12-.02-.18-.03-.06-.01-.12-.02-.18-.03-.06-.01-.12-.02-.18-.03-.06-.01-.12-.02-.18-.03-.06-.01-.12-.02-.18-.03-.06-.01-.12-.02-.18-.03-.31-.07-.62-.1-.95-.1h-19.45l14.38-11.74,6.28,10.23c.73,1.18,1.95,1.95,3.31,2.11.06,0,.12.02.18.03.06,0,.12.02.18.03.06,0,.12.02.18.03.06,0,.12.02.18.03.06,0,.12.02.18.03.06,0,.12.02.18.03.06,0,.12.02.18.03.06,0,.12.02.18.03.06,0,.12.02.18.03.06,0,.12.02.18.03.06,0,.12.02.18.03.06,0,.12.02.18.03.06,0,.12.02.18.03.06,0,.12.02.18.03.06,0,.12.02.18.03.06,0,.12.02.18.03.06,0,.12.02.18.03.06,0,.12.02.18.03.06,0,.12.02.18.03.06,0,.12.02.18.03.06,0,.12.02.18.03.06,0,.12.02.18.03.06,0,.12.02.18.03.06,0,.12.02.18.03.06,0,.12.02.18.03.06,0,.12.02.18.03.06,0,.12.02.18.03.06,0,.12.02.18.03.06,0,.12.02.18.03.06,0,.12.02.18.03.06,0,.12.02.18.03.06,0,.12.02.18.03.06,0,.12.02.18.03.06,0,.12.02.18.03.06,0,.12.02.18.03.06,0,.12.02.18.03.06,0,.12.02.18.03.06,0,.12.02.18.03.06,0,.12.02.18.03.06,0,.12.02.18.03.06,0,.12.02.18.03.06,0,.12.02.18.03.06,0,.12.02.18.03.06,0,.12.02.18.03.06,0,.12.02.18.03.06,0,.12.02.18.03.06,0,.12.02.18.03.06,0,.12.02.18.03.06,0,.12.02.18.03.06,0,.12.02.18.03.06,0,.12.02.18.03.06,0,.12.02.18.03.06,0,.12.02.18.03.06,0,.12.02.18.03.06,0,.12.02.18.03.06,0,.12.02.18.03.06,0,.12.02.18.03.06,0,.12.02.18.03.06,0,.12.02.18.03.06,0,.12.02.18.03.06,0,.12.02.18.03.06,0,.12.02.18.03.06,0,.12.02.18.03.06,0,.12.02.18.03.06,0,.12.02.18.03.06,0,.12.02.18.03.06,0,.12.02.18.03.06,0,.12.02.18.03.06,0,.12.02.18.03.06,0,.12.02.18.03.06,0,.12.02.18.03.06,0,.12.02.18.03.06,0,.12.02.18.03.06,0,.12.02.18.03.06,0,.12.02.18.03.06,0,.12.02.18.03.06,0,.12.02.18.03.06,0,.12.02.18.03.06,0,.12.02.18.03.06,0,.12.02.18.03.06,0,.12.02.18.03.06,0,.12.02.18.03.06,0,.12.02.18.03.06,0,.12.02.18.03.06,0,.12.02.18.03.06,0,.12.02.18.03.06,0,.12.02.18.03.06,0,.12.02.18.03.06,0,.12.02.18.03.06,0,.12.02.18.03.06,0,.12.02.18.03.06,0,.12.02.18.03.06,0,.12.02.18.03.06,0,.12.02.18.03.06,0,.12.02.18.03.06,0,.12.02.18.03.06,0,.12.02.18.03.06,0,.12.02.18.03.06,0,.12.02.18.03.06,0,.12.02.18.03.23.04.46.06.7.06h8.9c-3.49,1.34-6.67,2.92-9.54,4.72.05-.28.09-.56.09-.85,0-2.22-1.61-4.05-3.72-4.42ZM362.58,175.7c3.82,3.55,9.66,6.54,17.68,9.03-.3-.06-.61-.1-.92-.1-.08,0-.16,0-.23,0l-24.89,1.29,4.34-15.13c1.05,1.75,2.39,3.39,4.02,4.9ZM303.9,71.84c.82-2.69,1.45-5.3,1.88-7.82l9.08,13.47-22.38,17.27c4.95-6.63,8.78-14.29,11.41-22.91ZM143.21,117.1c-10.42-3.76-17.99-9.71-22.69-17.85-4.71-8.14-5.19-18.33-1.45-30.56,5.22-17.09,16.41-30.39,33.57-39.91,17.15-9.52,38.45-14.28,63.87-14.28s44.72,4.68,55.96,14.03c11.24,9.35,14.29,22.45,9.14,39.3-3.74,12.23-9.89,22.27-18.44,30.09-8.55,7.83-19.32,13.92-32.3,18.28-12.98,4.35-28.15,6.53-45.53,6.53s-31.71-1.88-42.13-5.64ZM261.64,122.4c.36,1.04,1.08,1.88,1.98,2.41h-3.15c-2.01,0-3.77,1.33-4.32,3.26l-2.71,9.46c-2.8-3.56-6.7-6.11-11.66-7.57-1.95-.58-4.21-1.05-6.79-1.42-.06,0-.12-.02-.18-.03-.06,0-.12-.02-.18-.03-.06,0-.12-.02-.18-.03-.06,0-.12-.02-.18-.03-.06,0-.12-.02-.18-.03-.06,0-.12-.02-.18-.03-.06,0-.12-.02-.18-.03-.06,0-.12-.02-.18-.03-.06,0-.12-.02-.18-.03-.06,0-.12-.02-.18-.03-.06,0-.12-.02-.18-.03-.06,0-.12-.02-.18-.03-.06,0-.12-.02-.18-.03-.06,0-.12-.02-.18-.03-.06,0-.12-.02-.18-.03-.06,0-.12-.02-.18-.03-.06,0-.12-.02-.18-.03-.06,0-.12-.02-.18-.03-.06,0-.12-.02-.18-.03-.06,0-.12-.02-.18-.03-.06,0-.12-.02-.18-.03-.06,0-.12-.02-.18-.03-.06,0-.12-.02-.18-.03-.06,0-.12-.02-.18-.03-.02,0-.05,0-.07-.01,7.02-1.12,13.59-2.68,19.66-4.72,4.17-1.4,8.13-2.98,11.89-4.74-.78,1.15-1,2.62-.54,3.98ZM102.1,183.68h-42.41l-10.77,37.56H14.95l26.36-91.92h83.62l-5.66,19.75h-49.65l-4.6,16.05h42.41l-5.32,18.56ZM120.37,162.52c-.06,0-.12-.02-.18-.03-.06,0-.12-.02-.18-.03-.06,0-.12-.02-.18-.03-.06,0-.12-.02-.18-.03-.06,0-.12-.02-.18-.03-.06,0-.12-.02-.18-.03-.06,0-.12-.02-.18-.03-.06,0-.12-.02-.18-.03-.06,0-.12-.02-.18-.03-.06,0-.12-.02-.18-.03-.06,0-.12-.02-.18-.03-.06,0-.12-.02-.18-.03-.06,0-.12-.02-.18-.03-.06,0-.12-.02-.18-.03-.06,0-.12-.02-.18-.03-.06,0-.12-.02-.18-.03-.06,0-.12-.02-.18-.03-.06,0-.12-.02-.18-.03-.06,0-.12-.02-.18-.03-.06,0-.12-.02-.18-.03-.06,0-.12-.02-.18-.03-.06,0-.12-.02-.18-.03-.06,0-.12-.02-.18-.03-.06,0-.12-.02-.18-.03-.06,0-.12-.02-.18-.03-.06,0-.12-.02-.18-.03-.06,0-.12-.02-.18-.03-.06,0-.12-.02-.18-.03-.06,0-.12-.02-.18-.03-.06,0-.12-.02-.18-.03-.06,0-.12-.02-.18-.03-.06,0-.12-.02-.18-.03-.06,0-.12-.02-.18-.03-.06,0-.12-.02-.18-.03-.06,0-.12-.02-.18-.03-.06,0-.12-.02-.18-.03-.06,0-.12-.02-.18-.03-.06,0-.12-.02-.18-.03-.06,0-.12-.02-.18-.03-.06,0-.12-.02-.18-.03-.06,0-.12-.02-.18-.03-.06,0-.12-.02-.18-.03-.06,0-.12-.02-.18-.03-.06,0-.12-.02-.18-.03-.06,0-.12-.02-.18-.03-.06,0-.12-.02-.18-.03-.06,0-.12-.02-.18-.03-.06,0-.12-.02-.18-.03-.06,0-.12-.02-.18-.03-.06,0-.12-.02-.18-.03-.06,0-.12-.02-.18-.03-.06,0-.12-.02-.18-.03-.06,0-.12-.02-.18-.03-.06,0-.12-.02-.18-.03-.06,0-.12-.02-.18-.03-.06,0-.12-.02-.18-.03-.06,0-.12-.02-.18-.03-.06,0-.12-.02-.18-.03-.06,0-.12-.02-.18-.03-.06,0-.12-.02-.18-.03-.06,0-.12-.02-.18-.03-.06,0-.12-.02-.18-.03-.06,0-.12-.02-.18-.03-.06,0-.12-.02-.18-.03-.06,0-.12-.02-.18-.03-.06,0-.12-.02-.18-.03-.06,0-.12-.02-.18-.03-.06,0-.12-.02-.18-.03-.06,0-.12-.02-.18-.03-.22-.03-.44-.06-.66-.06h-17.68l1.25-4.36h39.43l-2.29,7.99c-.65-.5-1.42-.81-2.24-.9-.06,0-.12-.02-.18-.03-.06,0-.12-.02-.18-.03-.06,0-.12-.02-.18-.03-.06,0-.12-.02-.18-.03-.06,0-.12-.02-.18-.03-.06,0-.12-.02-.18-.03-.06,0-.12-.02-.18-.03-.06,0-.12-.02-.18-.03-.06,0-.12-.02-.18-.03-.06,0-.12-.02-.18-.03-.06,0-.12-.02-.18-.03-.06,0-.12-.02-.18-.03-.06,0-.12-.02-.18-.03-.06,0-.12-.02-.18-.03-.06,0-.12-.02-.18-.03-.06,0-.12-.02-.18-.03-.06,0-.12-.02-.18-.03-.06,0-.12-.02-.18-.03-.06,0-.12-.02-.18-.03-.06,0-.12-.02-.18-.03-.06,0-.12-.02-.18-.03-.06,0-.12-.02-.18-.03-.06,0-.12-.02-.18-.03-.06,0-.12-.02-.18-.03-.06,0-.12-.02-.18-.03-.06,0-.12-.02-.18-.03-.06,0-.12-.02-.18-.03-.06,0-.12-.02-.18-.03-.06,0-.12-.02-.18-.03-.06,0-.12-.02-.18-.03-.06,0-.12-.02-.18-.03ZM208.27,184.06c1.03.75,2.37,2.36,4.02,4.83,1.65,2.47,2.69,4.37,3.1,5.71l8.74,26.64h-38.22l-10.02-28.09c-1.25-3.64-2.61-6-4.09-7.08-2.03-1.42-4.59-2.13-7.68-2.13h-2.99l-10.7,37.31h-33.97l26.36-91.92h56.37c10.45,0,18.23.75,23.32,2.26,5.09,1.5,8.75,4.3,10.96,8.37,2.22,4.08,2.48,9.04.81,14.89-1.46,5.1-4.02,9.5-7.67,13.2-3.65,3.7-8.07,6.7-13.26,9-3.31,1.46-7.61,2.68-12.92,3.64,3.7,1.13,6.32,2.26,7.83,3.39ZM230.75,184.81c.84-.31,1.65-.63,2.41-.97,3-1.33,5.78-2.89,8.34-4.67l-4.39,15.31c-.65-1.5-1.66-3.25-3.1-5.39-1.21-1.8-2.28-3.2-3.26-4.27ZM326.4,221.24h-92.28l26.36-91.92h90.64l-5.63,19.63h-56.74l-4.19,14.61h52.64l-5.38,18.75h-52.64l-5.2,18.12h58.38l-5.97,20.82ZM342.25,190.01c-.46,2.51-.69,4.93-.69,7.25-.05,0-.11-.02-.16-.02-.06,0-.12-.02-.18-.03-.06,0-.12-.02-.18-.03-.06,0-.12-.02-.18-.03-.06,0-.12-.02-.18-.03-.06,0-.12-.02-.18-.03-.06,0-.12-.02-.18-.03-.06,0-.12-.02-.18-.03-.06,0-.12-.02-.18-.03-.06,0-.12-.02-.18-.03-.06,0-.12-.02-.18-.03-.06,0-.12-.02-.18-.03-.06,0-.12-.02-.18-.03-.06,0-.12-.02-.18-.03-.06,0-.12-.02-.18-.03-.06,0-.12-.02-.18-.03-.06,0-.12-.02-.18-.03-.06,0-.12-.02-.18-.03-.06,0-.12-.02-.18-.03-.06,0-.12-.02-.18-.03-.06,0-.12-.02-.18-.03-.06,0-.12-.02-.18-.03-.06,0-.12-.02-.18-.03-.06,0-.12-.02-.18-.03-.06,0-.12-.02-.18-.03-.06,0-.12-.02-.18-.03-.06,0-.12-.02-.18-.03-.06,0-.12-.02-.18-.03-.06,0-.12-.02-.18-.03-.06,0-.12-.02-.18-.03-.06,0-.12-.02-.18-.03-.06,0-.12-.02-.18-.03-.06,0-.12-.02-.18-.03-.06,0-.12-.02-.18-.03-.06,0-.12-.02-.18-.03-.06,0-.12-.02-.18-.03-.06,0-.12-.02-.18-.03-.06,0-.12-.02-.18-.03-.06,0-.12-.02-.18-.03-.06,0-.12-.02-.18-.03-.06,0-.12-.02-.18-.03-.06,0-.12-.02-.18-.03-.06,0-.12-.02-.18-.03-.06,0-.12-.02-.18-.03-.06,0-.12-.02-.18-.03-.06,0-.12-.02-.18-.03-.06,0-.12-.02-.18-.03-.06,0-.12-.02-.18-.03-.22-.03-.44-.06-.66-.06h-33.65l1.84-6.43h41.84c-.05.17-.11.34-.14.51ZM345.87,160.31c-.06,0-.12-.02-.18-.03-.06,0-.12-.02-.18-.03-.06,0-.12-.02-.18-.03-.06,0-.12-.02-.18-.03-.06,0-.12-.02-.18-.03-.06,0-.12-.02-.18-.03-.06,0-.12-.02-.18-.03-.06,0-.12-.02-.18-.03-.06,0-.12-.02-.18-.03-.06,0-.12-.02-.18-.03-.06,0-.12-.02-.18-.03-.06,0-.12-.02-.18-.03-.06,0-.12-.02-.18-.03-.06,0-.12-.02-.18-.03-.06,0-.12-.02-.18-.03-.06,0-.12-.02-.18-.03-.06,0-.12-.02-.18-.03-.06,0-.12-.02-.18-.03-.06,0-.12-.02-.18-.03-.06,0-.12-.02-.18-.03-.06,0-.12-.02-.18-.03-.06,0-.12-.02-.18-.03-.06,0-.12-.02-.18-.03-.06,0-.12-.02-.18-.03-.06,0-.12-.02-.18-.03-.06,0-.12-.02-.18-.03-.06,0-.12-.02-.18-.03-.06,0-.12-.02-.18-.03-.06,0-.12-.02-.18-.03-.06,0-.12-.02-.18-.03-.06,0-.12-.02-.18-.03-.06,0-.12-.02-.18-.03-.06,0-.12-.02-.18-.03-.06,0-.12-.02-.18-.03-.06,0-.12-.02-.18-.03-.06,0-.12-.02-.18-.03-.06,0-.12-.02-.18-.03-.06,0-.12-.02-.18-.03-.06,0-.12-.02-.18-.03-.06,0-.12-.02-.18-.03-.06,0-.12-.02-.18-.03-.06,0-.12-.02-.18-.03-.06,0-.12-.02-.18-.03-.06,0-.12-.02-.18-.03-.06,0-.12-.02-.18-.03-.22-.03-.44-.06-.66-.06h-27.9l.84-2.92h46.07c-.36,1.95-.49,3.84-.38,5.66-.05,0-.1-.02-.15-.02-.06,0-.12-.02-.18-.03-.06,0-.12-.02-.18-.03-.06,0-.12-.02-.18-.03-.06,0-.12-.02-.18-.03-.06,0-.12-.02-.18-.03-.06,0-.12-.02-.18-.03-.06,0-.12-.02-.18-.03-.06,0-.12-.02-.18-.03-.06,0-.12-.02-.18-.03-.06,0-.12-.02-.18-.03-.06,0-.12-.02-.18-.03-.06,0-.12-.02-.18-.03-.06,0-.12-.02-.18-.03-.06,0-.12-.02-.18-.03-.06,0-.12-.02-.18-.03-.06,0-.12-.02-.18-.03-.06,0-.12-.02-.18-.03-.06,0-.12-.02-.18-.03-.06,0-.12-.02-.18-.03-.06,0-.12-.02-.18-.03-.06,0-.12-.02-.18-.03-.06,0-.12-.02-.18-.03-.06,0-.12-.02-.18-.03-.06,0-.12-.02-.18-.03-.06,0-.12-.02-.18-.03-.06,0-.12-.02-.18-.03-.06,0-.12-.02-.18-.03-.06,0-.12-.02-.18-.03-.06,0-.12-.02-.18-.03-.06,0-.12-.02-.18-.03-.06,0-.12-.02-.18-.03-.06,0-.12-.02-.18-.03-.06,0-.12-.02-.18-.03-.06,0-.12-.02-.18-.03-.06,0-.12-.02-.18-.03-.06,0-.12-.02-.18-.03-.06,0-.12-.02-.18-.03-.06,0-.12-.02-.18-.03-.06,0-.12-.02-.18-.03-.06,0-.12-.02-.18-.03-.06,0-.12-.02-.18-.03-.06,0-.12-.02-.18-.03-.06,0-.12-.02-.18-.03-.06,0-.12-.02-.18-.03-.06,0-.12-.02-.18-.03-.06,0-.12-.02-.18-.03-.06,0-.12-.02-.18-.03-.06,0-.12-.02-.18-.03-.06,0-.12-.02-.18-.03-.06,0-.12-.02-.18-.03-.06,0-.12-.02-.18-.03-.06,0-.12-.02-.18-.03-.06,0-.12-.02-.18-.03-.06,0-.12-.02-.18-.03-.06,0-.12-.02-.18-.03ZM445.83,191.33c-1.69,5.89-5.19,11.33-10.5,16.3-5.31,4.98-11.82,8.75-19.52,11.32-7.71,2.57-16.86,3.86-27.46,3.86-18.62,0-30.64-3.01-36.08-9.03-5.44-6.02-7.31-13.67-5.59-22.95l32.66-1.69c-.56,4.39-.1,7.73,1.38,10.03,2.42,3.72,6.86,5.58,13.33,5.58,4.83,0,8.82-.95,11.98-2.85,3.16-1.9,5.1-4.11,5.82-6.61.68-2.38.05-4.51-1.9-6.4-1.95-1.88-7.21-3.66-15.79-5.33-14.03-2.8-23.54-6.52-28.53-11.16-5.04-4.64-6.53-10.55-4.47-17.74,1.35-4.72,4.26-9.19,8.73-13.39,4.46-4.2,10.31-7.5,17.55-9.91,7.23-2.4,16.55-3.61,27.95-3.61,13.99,0,24.02,2.19,30.11,6.55,6.09,4.37,8.46,11.32,7.12,20.85l-32.33,1.57c.34-4.14-.58-7.15-2.75-9.03-2.17-1.88-5.65-2.82-10.43-2.82-3.93,0-7.1.7-9.49,2.1-2.39,1.4-3.88,3.1-4.45,5.11-.42,1.46.02,2.78,1.33,3.95,1.24,1.21,4.7,2.34,10.38,3.39,14.02,2.68,23.83,5.38,29.44,8.12,5.61,2.74,9.29,6.13,11.04,10.19,1.75,4.06,1.9,8.59.47,13.61ZM401.36,189.86c4.29,1.25,5.32,2.13,5.46,2.26.98.94.84,1.44.7,1.92-.39,1.37-1.68,2.71-3.81,4-.48.29-1,.54-1.54.77-.6-1.41-.73-3.65-.38-6.41.11-.88-.04-1.76-.43-2.54ZM415.86,155.28c0,.1,0,.21,0,.32-.06-.03-.11-.06-.15-.08.04-.08.11-.16.16-.24ZM454.28,166.19c-1.88-.92-4.16-1.82-6.84-2.72l20.68-1-3.35,11.68c-2.46-3.09-5.97-5.76-10.49-7.97Z"/><path class="cls-1" d="M217.36,91.75c7.08-4.52,12.41-12.64,15.99-24.35,3.01-9.85,2.24-17.05-2.32-21.6-4.56-4.55-11.93-6.82-22.11-6.82s-18.3,2.31-25.62,6.93c-7.32,4.62-12.62,12.26-15.87,22.92-3.23,10.57-2.61,18.16,1.85,22.78,4.46,4.62,11.75,6.93,21.87,6.93s19.14-2.26,26.22-6.78ZM189.71,72.84c2.92-9.55,7.62-16.43,13.97-20.43,5.83-3.67,12.64-5.73,20.29-6.14,1.52.76,2.81,1.66,3.88,2.72,3.26,3.26,3.67,9.01,1.19,17.1-3.24,10.6-7.99,17.96-14.11,21.87-5.59,3.57-12.51,5.57-20.61,5.99-1.51-.77-2.79-1.69-3.84-2.77-3.22-3.33-3.48-9.5-.78-18.34Z"/><path class="cls-1" d="M186.33,147.87h-14.86l-5.36,18.69h14.26c1.54,0,4.65-.42,9.32-1.25,2.35-.38,4.45-1.34,6.31-2.89,1.86-1.55,3.08-3.32,3.66-5.33.85-2.97.38-5.25-1.4-6.84-1.78-1.59-5.76-2.38-11.93-2.38ZM195.35,155.85c-.32,1.13-1.04,2.15-2.21,3.11-.55.46-1.12.82-1.72,1.12l1.44-5.01h2.67c-.04.23-.09.48-.18.78Z"/><path class="cls-1" d="M599.62,225.5c-4.96,0-8.99-4.04-8.99-8.99s4.03-8.99,8.99-8.99,9,4.03,9,8.99-4.04,8.99-9,8.99ZM599.62,209.26c-4,0-7.25,3.25-7.25,7.25s3.25,7.25,7.25,7.25,7.25-3.25,7.25-7.25-3.25-7.25-7.25-7.25Z"/><path class="cls-1" d="M602.3,221.09l-1.25-1.97c-.32-.5-.59-.89-.8-1.16-.23-.3-.39-.43-.48-.49-.13-.09-.27-.15-.4-.18-.05-.01-.2-.03-.54-.03h-.93v3.82h-1.91v-9.39h4.21c.82,0,1.44.08,1.89.26.48.18.87.51,1.15.98.28.45.42.96.42,1.5,0,.71-.24,1.32-.7,1.81-.29.3-.67.54-1.14.7.35.32.68.72.98,1.19l1.88,2.94h-2.35ZM599.95,215.51c.47,0,.84-.05,1.09-.14.21-.08.37-.2.48-.36.11-.17.17-.36.17-.56,0-.3-.1-.53-.31-.71-.22-.2-.61-.3-1.14-.3h-2.34v2.07h2.06Z"/><path class="cls-1" d="M454.58,14.03l2.29,10.17.44.18c1.71.69,3.09,2.07,3.78,3.78l.18.45,10.14,2.04-10.18,2.29-.18.43c-.69,1.63-2.02,2.97-3.65,3.65l-.44.18-2.05,10.23-2.3-10.23-.43-.18c-1.67-.69-3.02-2.03-3.71-3.7l-.18-.44-10.18-2.04,10.16-2.29.18-.43c.68-1.65,2.01-3,3.66-3.7l.44-.19,2.05-10.2M454.58,12.24s-.01,0-.02,0c-.85,0-1.58.61-1.74,1.44l-1.87,9.28c-1.73.85-3.15,2.29-3.98,4.03l-9.26,2.08c-.83.19-1.41.93-1.4,1.78,0,.85.61,1.58,1.44,1.74l9.26,1.86c.85,1.75,2.29,3.19,4.05,4.03l2.1,9.33c.18.82.91,1.4,1.75,1.4,0,0,.01,0,.02,0,.85,0,1.58-.61,1.74-1.44l1.87-9.31c1.72-.84,3.14-2.26,3.98-3.98l9.29-2.09c.83-.19,1.41-.93,1.4-1.78,0-.85-.61-1.58-1.44-1.74l-9.21-1.85c-.86-1.81-2.33-3.28-4.14-4.13l-2.08-9.27c-.18-.82-.91-1.4-1.75-1.4h0Z"/><path class="cls-1" d="M568.8,103.98l2.29,10.17.44.18c1.71.69,3.09,2.07,3.78,3.78l.18.45,10.14,2.04-10.18,2.29-.18.43c-.69,1.63-2.02,2.97-3.65,3.65l-.44.18-2.05,10.23-2.3-10.23-.43-.18c-1.67-.69-3.02-2.03-3.71-3.7l-.18-.44-10.18-2.04,10.16-2.29.18-.43c.68-1.65,2.01-3,3.66-3.7l.44-.19,2.05-10.2M568.8,102.18s-.01,0-.02,0c-.85,0-1.58.61-1.74,1.44l-1.87,9.28c-1.73.85-3.15,2.29-3.98,4.03l-9.26,2.08c-.83.19-1.41.93-1.4,1.78,0,.85.61,1.58,1.44,1.74l9.26,1.86c.85,1.75,2.29,3.19,4.05,4.03l2.1,9.33c.18.82.91,1.4,1.75,1.4,0,0,.01,0,.02,0,.85,0,1.58-.61,1.74-1.44l1.87-9.31c1.72-.84,3.14-2.26,3.98-3.98l9.29-2.09c.83-.19,1.41-.93,1.4-1.78,0-.85-.61-1.58-1.44-1.74l-9.21-1.85c-.86-1.81-2.33-3.28-4.14-4.13l-2.08-9.27c-.18-.82-.91-1.4-1.75-1.4h0Z"/></svg>