<?xml version="1.0" encoding="UTF-8"?>
<svg id="Layer_1" xmlns="http://www.w3.org/2000/svg" version="1.1" viewBox="0 0 170 140">
  <!-- Generator: Adobe Illustrator 29.6.1, SVG Export Plug-In . SVG Version: 2.1.1 Build 9)  -->
  <defs>
    <style>
      .st0 {
        fill: #7c878e;
      }
    </style>
  </defs>
  <g>
    <polygon class="st0" points="10.1 60.5 10.1 49.5 17 49.5 17 21.8 10.1 21.8 10.1 10 44.7 10 44.7 21.8 37.9 21.8 37.9 49.5 44.7 49.5 44.7 60.5 10.1 60.5"/>
    <path class="st0" d="M77.8,60.5v-11h4.6v-11.4c0-3.4-2.3-4.9-5.7-4.9s-6.8,2.7-7.2,6.5v9.9h4.9v11h-26.6v-11h4.6v-16.3h-4.6v-11h21.3v7.6c.4-.4.8-.8,1.1-1.1,3.4-4.2,9.1-6.5,14.4-6.1,8.4,0,15.2,3.4,15.2,12.5v14.4h4.6v11h-26.6Z"/>
    <path class="st0" d="M148.5,38.1l-14.8,1.5c0-4.2-1.1-8.4-6.1-8.4s-6.8,5.3-6.8,10.3h0c0,5.3.4,10.6,6.8,10.6,3,.4,6.1-1.9,6.5-5.3v-.8h14.8v1.1c-2.3,12.2-13.3,14.1-20.9,14.1-12.2,0-24.3-6.1-24.3-19.8h0c0-13.7,12.2-19.8,24.3-19.8-.4.4,19-.8,20.5,16.3Z"/>
    <path class="st0" d="M159.9,54.5c0,3.4-2.7,6.1-6.1,6.1s-6.1-2.7-6.1-6.1,2.7-6.1,6.1-6.1h0c3.4,0,6.1,2.7,6.1,6.1h0Z"/>
  </g>
  <g>
    <path class="st0" d="M83.2,67.5c-15.7,0-24.6,10.5-24.6,31.1s8.9,31.1,24.6,31.1,24.6-10.5,24.6-31.1-9.3-31.1-24.6-31.1ZM83.2,117.1c-5.6,0-6.9-5.6-6.9-18.6s1.2-18.6,6.9-18.6,6.9,5.6,6.9,18.6-1.2,18.6-6.9,18.6h0Z"/>
    <path class="st0" d="M135.2,67.5c-15.7,0-24.6,10.5-24.6,31.1s8.9,31.1,24.6,31.1,24.6-10.5,24.6-31.1-9.3-31.1-24.6-31.1ZM135.2,117.1c-5.6,0-6.9-5.6-6.9-18.6s1.2-18.6,6.9-18.6,6.9,5.6,6.9,18.6-1.2,18.6-6.9,18.6h0Z"/>
    <path class="st0" d="M51.3,92.5c-4-3.2-8.9-5.2-14.1-4.8-4,0-8.5,1.2-11.3,4l1.2-9.7h25.4v-14.1H15.4l-4,28.2,10.9,5.6c2.8-2.4,6.1-4,9.7-4s3.6.8,5.2,2c2,2,2.8,4.8,2.8,7.7s0,2.4-.4,3.2c-.4,3.6-3.6,6.1-7.3,5.6-6.9,0-6.5-8.5-4.8-11.7h0l-17.4,9.3c1.2,10.9,12.5,16.1,21.8,16.1s12.5-2,16.9-6.1c1.6-1.6,3.2-3.2,4.4-5.6,2-3.2,2.8-7.3,2.8-10.9.8-5.6-1.2-10.9-4.8-14.9Z"/>
  </g>
</svg>